<?xml version="1.0" encoding="utf-8"?>
<!-- Generator: Adobe Illustrator 16.0.0, SVG Export Plug-In . SVG Version: 6.00 Build 0)  -->
<!DOCTYPE svg PUBLIC "-//W3C//DTD SVG 1.1//EN" "http://www.w3.org/Graphics/SVG/1.1/DTD/svg11.dtd">
<svg version="1.1" id="Layer_1" xmlns="http://www.w3.org/2000/svg" xmlns:xlink="http://www.w3.org/1999/xlink" x="0px" y="0px"
	 width="212px" height="212px" viewBox="0 0 212 212" enable-background="new 0 0 212 212" xml:space="preserve">
<g display="none">
	
		<rect x="146.206" y="85.449" display="inline" fill="none" stroke="#010101" stroke-miterlimit="10" width="38.585" height="38.594"/>
	
		<rect x="184.791" y="124.042" display="inline" fill="none" stroke="#010101" stroke-miterlimit="10" width="38.585" height="38.594"/>
	
		<rect x="184.791" y="85.449" display="inline" fill="none" stroke="#010101" stroke-miterlimit="10" width="38.585" height="38.594"/>
	
		<rect x="146.206" y="124.042" display="inline" fill="none" stroke="#010101" stroke-miterlimit="10" width="38.585" height="38.594"/>
</g>
<polygon fill="#FFFFFF" points="35.124,46.209 35.124,52.876 32.041,65.376 29.957,68.841 30.124,73.376 44.624,74.376 
	69.291,74.376 78.457,71.542 77.124,67.545 75.957,62.376 73.812,57.542 70.711,53.535 65.291,48.949 57.957,45.042 53.707,40.876 
	52.124,35.995 50.291,31.542 48.624,27.376 29.124,32.542 "/>
<polyline fill="#FFFFFF" points="134.957,69.875 158.79,33.375 164.624,25.042 171.79,21.875 177.939,21.875 184.29,23.709 
	187.29,26.375 190.624,32.375 191.957,37.398 191.957,44.875 188.957,50.876 183.79,58.375 179.457,65.542 174.124,73.042 "/>
<g>
	<g>
		<g id="group-73svg">
			<path id="path-1_69_" fill="#010101" d="M76.499,129.374c-0.387,0.141-0.805,0.275-1.251,0.401
				c-0.425,0.189-0.833,0.354-1.223,0.495c-3.037,1.101-5.628,1.04-7.702-0.177c-0.405-0.238-0.759-0.504-1.075-0.788
				c-1.789,1.894-3.682,3.21-5.658,3.926c-7.257,2.629-12.121-3.648-12.339-3.91c-0.19-0.232,0.007-0.619-0.095-0.9L27.492,74.144
				c-1.531-4.227,0.057-9.895,0.689-11.568l7.501-19.01c0.275-0.686,0.656-1.159,1.353-1.411l12.698-4.6
				c0.74-0.268,1.56-0.188,2.233,0.221l17.12,10.042c3.482,1.974,6.27,5.825,7.282,8.62l19.664,54.277
				c0.078,0.215-0.221,0.566-0.2,0.794c0.238,2.887-0.989,8.951-6.694,11.018l0,0c-1.849,0.67-4.12,0.89-6.606,0.604
				c-0.05,0.375-0.174,0.78-0.306,1.174C81.489,126.557,79.533,128.274,76.499,129.374z M73.475,124.881
				c0.067-0.024,0.134-0.047,0.201-0.066c2.002-0.542,3.291-1.325,3.559-2.092c0.226-0.648-0.247-1.444-0.25-1.45
				c-0.56-0.909-0.522-2.093,0.117-2.947c0.644-0.854,1.727-1.252,2.757-0.969c3.079,0.847,5.963,0.842,7.683,0.219
				c2.896-1.049,2.164-3.978,3.465-5.476L71.481,58.207c-0.908-2.506-3.178-4.859-5.024-5.906l-16.123-9.436l-10.437,3.781
				l-6.874,17.813c-1.161,3.093-1.231,6.294-0.645,7.914l19.485,53.785c0.361,0.995,3.109,3.216,6.301,2.059
				c1.865-0.676,3.571-2.306,5.42-4.966c0.606-0.872,1.674-1.028,2.703-0.797c1.034,0.234,1.625,0.665,2.031,2.361
				c0.001-0.001-0.021,0.007-0.021,0.007c0.002,0,0.106,0.649,0.775,1.024c0.81,0.449,2.285,0.121,4.251-0.775
				C73.387,125.042,73.408,124.905,73.475,124.881z"/>
			<path id="path-2_69_" fill="#010101" d="M86.413,84.164c0.489,1.349-0.208,2.84-1.558,3.33L40.866,103.43
				c-1.351,0.489-2.84-0.21-3.329-1.559L31.044,83.95c-0.489-1.349,0.208-2.84,1.559-3.329l43.989-15.937
				c1.351-0.489,2.84,0.209,3.329,1.559L86.413,84.164z M41.539,97.656l39.102-14.166l-4.722-13.034L36.817,84.623L41.539,97.656
				L41.539,97.656z"/>
			<path id="path-3_69_" fill="#010101" d="M56.711,37.79c0.489,1.349-0.208,2.84-1.558,3.329l-21.18,7.673
				c-1.351,0.489-2.84-0.209-3.33-1.559L25.922,34.2c-0.489-1.349,0.208-2.84,1.559-3.329l21.18-7.673
				c1.351-0.489,2.84,0.209,3.329,1.558L56.711,37.79z M34.646,43.019l16.292-5.902l-2.951-8.146l-16.292,5.902L34.646,43.019
				L34.646,43.019z"/>
		</g>
	</g>
	<path fill="#010101" d="M121.33,100.351c1.103,4.894,4.019,9.106,8.211,11.863c0.016,0.011,0.032,0.021,0.048,0.03l0.868,0.535
		c0.016,0.009,0.031,0.019,0.047,0.027c4.267,2.46,9.255,3.187,14.045,2.048c0,0,0,0,0.002,0c4.195-0.999,7.972-3.407,10.635-6.784
		c0.044-0.056,0.085-0.115,0.123-0.176l36.35-58.825c2.702-4.373,3.539-9.535,2.359-14.535c-1.18-5.001-4.238-9.242-8.611-11.943
		c-4.384-2.708-9.558-3.542-14.568-2.35c-4.988,1.186-9.221,4.243-11.917,8.605l-8.341,13.496c-0.06,0.083-0.113,0.17-0.16,0.26
		L138.512,61.87l-6.224,10.173c-0.042,0.061-0.08,0.124-0.114,0.188l-8.476,13.854C121.066,90.375,120.224,95.442,121.33,100.351z
		 M126.906,88.052l6.147-10.048l4.647,19.68c0.239,1.012,1.252,1.638,2.264,1.399c0.001,0,0.002,0,0.003,0
		c1.01-0.24,1.634-1.252,1.396-2.264l-5.521-23.375l5.874-9.603l0.27-0.433l4.437,18.796c0.239,1.012,1.253,1.638,2.264,1.398
		c0,0,0.002,0,0.002,0c1.01-0.241,1.636-1.253,1.397-2.264l-5.302-22.458l6.524-10.557l4.652,19.704
		c0.24,1.012,1.254,1.638,2.265,1.399c0,0,0.002,0,0.003,0c1.01-0.241,1.635-1.253,1.396-2.264l-5.518-23.367l6.159-9.967
		l4.493,19.019c0.239,1.012,1.253,1.639,2.265,1.398c0,0,0.001,0,0.003,0c1.01-0.24,1.634-1.252,1.396-2.264l-5.327-22.551
		c2.152-2.765,5.156-4.706,8.613-5.528c4.03-0.959,8.193-0.288,11.72,1.891c3.518,2.172,5.977,5.583,6.925,9.605
		c0.95,4.021,0.275,8.173-1.898,11.691l-36.291,58.731c-2.136,2.672-5.146,4.578-8.486,5.372c0,0,0,0,0,0
		c-3.843,0.915-7.845,0.334-11.273-1.634l-0.819-0.504C124.574,104.425,122.518,95.206,126.906,88.052z"/>
	<path fill="#FFFFFF" d="M45.401,181.666c0.611,5.224,4.643,9.807,8.625,9.807h103.221c4.005,0,8.088-4.604,8.735-9.851
		l11.957-96.831H34.06L45.401,181.666z"/>
	<g>
		<path fill="#6BC7B9" d="M135.111,184.542H76.888c-7.624,0-13.806-6.806-13.806-15.2v-64.104c0-8.394,6.182-15.2,13.806-15.2
			h58.223c7.624,0,13.806,6.806,13.806,15.2v64.104C148.917,177.736,142.735,184.542,135.111,184.542z"/>
		<path fill="#FFFFFF" d="M135.712,140.925H106c-0.912,0-1.651-0.812-1.651-1.817c0-1.005,0.74-1.818,1.651-1.818h29.712
			c0.911,0,1.65,0.812,1.65,1.818C137.362,140.113,136.623,140.925,135.712,140.925z"/>
		<path fill="#FFFFFF" d="M135.712,166.369H106c-0.912,0-1.651-0.812-1.651-1.817s0.74-1.818,1.651-1.818h29.712
			c0.911,0,1.65,0.812,1.65,1.818S136.623,166.369,135.712,166.369z"/>
		<path fill="#FFFFFF" d="M83.007,146.377c-0.344,0-0.693-0.118-0.99-0.363l-7.546-6.232c-0.729-0.602-0.876-1.741-0.33-2.543
			c0.547-0.801,1.582-0.965,2.312-0.363l6.309,5.208l10.312-13.245c0.592-0.763,1.637-0.851,2.328-0.197
			c0.691,0.653,0.772,1.799,0.179,2.561l-11.319,14.539C83.936,146.161,83.473,146.377,83.007,146.377z"/>
		<path fill="#FFFFFF" d="M83.007,173.636c-0.344,0-0.693-0.118-0.99-0.363l-7.546-6.232c-0.729-0.602-0.876-1.741-0.33-2.543
			c0.547-0.802,1.582-0.964,2.312-0.362l6.309,5.208l10.312-13.243c0.592-0.766,1.637-0.853,2.328-0.197
			c0.691,0.652,0.772,1.799,0.179,2.561l-11.319,14.538C83.936,173.42,83.473,173.636,83.007,173.636z"/>
	</g>
	<g>
		<path fill="#4C78BC" d="M170.384,68.841L119.833,4.457l-8.35,11.552l41.481,52.833H58.874l40.892-52.874L91.35,4.499
			L41.589,68.841H14.542V84.85h7.283l11.629,99.334c1.534,13.097,10.558,23.358,20.543,23.358h103.221
			c9.961,0,19.026-10.222,20.638-23.271l12.276-99.42h7.325v-16.01H170.384z M165.954,181.681c-0.647,5.248-4.73,9.851-8.735,9.851
			H53.998c-3.982,0-8.014-4.583-8.625-9.807L34.031,84.85h143.88L165.954,181.681z"/>
	</g>
	<text transform="matrix(1.07 0 0 1 77.7817 122.0518)" fill="#FFFFFF" font-family="'Hero'" font-size="38">GH</text>
</g>
</svg>
